<?xml version="1.0" encoding="utf-8"?>
<!-- Generator: Adobe Illustrator 21.0.0, SVG Export Plug-In . SVG Version: 6.00 Build 0)  -->
<svg version="1.1" id="Layer_1" xmlns="http://www.w3.org/2000/svg" xmlns:xlink="http://www.w3.org/1999/xlink" x="0px" y="0px"
	 viewBox="0 0 15 14" style="enable-background:new 0 0 15 14;" xml:space="preserve">
<style type="text/css">
	.st0{fill:#FFFFFF;}
</style>
<g>
	<path class="st0" d="M14.2,4.1c-0.2-0.4-0.4-0.7-0.7-1c1.9,3.5,0.6,8-2.9,9.9c-0.9,0.5-1.8,0.8-2.7,0.9c1.3,0.1,2.6-0.1,3.8-0.8
		C14.8,11.4,15.9,7.3,14.2,4.1z"/>
	<path class="st0" d="M6.6,0C3,0,0,3,0,6.6s3,6.6,6.6,6.6s6.6-3,6.6-6.6S10.3,0,6.6,0z M7,9.6H5.7v-5L4.1,5.1V4l2.7-1H7V9.6z"/>
</g>
</svg>
