<?xml version="1.0" encoding="utf-8"?>
<!-- Generator: Adobe Illustrator 21.0.0, SVG Export Plug-In . SVG Version: 6.00 Build 0)  -->
<svg version="1.1" id="Layer_1" xmlns="http://www.w3.org/2000/svg" xmlns:xlink="http://www.w3.org/1999/xlink" x="0px" y="0px"
	 viewBox="0 0 23.5 15" style="enable-background:new 0 0 23.5 15;" xml:space="preserve">
<style type="text/css">
	.st0{fill:#FFFFFF;}
</style>
<g>
	<path class="st0" d="M1.4,4.8h17.5v8.8H1.4V4.8z M4.7,7.7l0.5,0.9l1,0.2L5.6,9.6l0.1,1.1l-1-0.4l-1,0.4l0.1-1.1L3.1,8.9l1-0.2
		L4.7,7.7z M6.8,6H2.6v6.4h4.2V6z M8.5,8.9l1-0.2l0.5-0.9l0.5,0.9l1,0.2L11,9.6l0.1,1.1l-1-0.4l-1,0.4l0.1-1.1L8.5,8.9z M8,6v6.4
		h4.2V6H8z M13.9,8.9l1-0.2l0.5-0.9l0.5,0.9l1,0.2l-0.7,0.8l0.1,1.1l-1-0.4l-1,0.4l0.1-1.1L13.9,8.9z M13.4,6v6.4h4.2V6H13.4z
		 M15.4,3.4C13-0.2,7.2-0.2,4.8,3.4H0V15h20.2v-3.4h0.7V9.9H23V2c0.3-0.2,0.4-0.5,0.4-0.9C23.5,0.5,23,0,22.3,0
		c-0.6,0-1.1,0.5-1.1,1.1c0,0.4,0.2,0.7,0.4,0.9v6.5h-0.7V6.8h-0.7V3.4L15.4,3.4L15.4,3.4z"/>
</g>
</svg>
