<?xml version="1.0" encoding="utf-8"?>
<!-- Generator: Adobe Illustrator 21.0.0, SVG Export Plug-In . SVG Version: 6.00 Build 0)  -->
<svg version="1.1" id="Layer_1" xmlns="http://www.w3.org/2000/svg" xmlns:xlink="http://www.w3.org/1999/xlink" x="0px" y="0px"
	 viewBox="0 0 12 17.7" style="enable-background:new 0 0 12 17.7;" xml:space="preserve">
<style type="text/css">
	.st0{fill:#FFFFFF;}
</style>
<g>
	<path class="st0" d="M11,1.1v15.7H1V1.1H11z M0,0.5v16.7c0,0.3,0.2,0.5,0.5,0.5h11c0.3,0,0.5-0.2,0.5-0.5V0.5C12,0.2,11.8,0,11.5,0
		h-11C0.2,0,0,0.2,0,0.5z"/>
	<path class="st0" d="M5.6,5.9c0.2-0.2,0.4-0.2,0.6,0l1.9,2.7c0.1,0.1,0.1,0.3,0,0.4l-1.9,2.7c-0.2,0.2-0.4,0.2-0.6,0L3.7,9.1
		C3.6,9,3.6,8.8,3.7,8.7L5.6,5.9z"/>
	<circle class="st0" cx="2.9" cy="2.9" r="0.8"/>
	<circle class="st0" cx="9.1" cy="14.9" r="0.8"/>
</g>
</svg>
