<?xml version="1.0" encoding="utf-8"?>
<!-- Generator: Adobe Illustrator 21.0.0, SVG Export Plug-In . SVG Version: 6.00 Build 0)  -->
<svg version="1.1" id="Layer_1" xmlns="http://www.w3.org/2000/svg" xmlns:xlink="http://www.w3.org/1999/xlink" x="0px" y="0px"
	 viewBox="0 0 18 19.7" style="enable-background:new 0 0 18 19.7;" xml:space="preserve">
<style type="text/css">
	.st0{fill:#FFFFFF;}
</style>
<g>
	<g>
		<path class="st0" d="M10.3,13.8c0.1-0.1,0.2-0.3,0.2-0.5V4.3c0-0.2-0.1-0.3-0.2-0.5C10.2,3.7,10,3.7,9.8,3.7H3.5
			c-0.2,0-0.3,0.1-0.5,0.2C3,4,2.9,4.1,2.9,4.3v9.1c0,0.2,0.1,0.3,0.2,0.5C3.2,14,3.4,14,3.5,14h6.3C10,14,10.2,14,10.3,13.8z
			 M9.7,13.3H3.6V4.4h6.1V13.3z"/>
		<path class="st0" d="M15,7.1C15,7,14.8,6.9,14.7,6.8l-3.9-1.4v0.7l3.6,1.3l-2.9,8.1L8,14.4H5.9l5.4,1.9c0.2,0.1,0.3,0,0.5,0
			c0.1-0.1,0.3-0.2,0.3-0.4l2.9-8.3C15.1,7.5,15.1,7.3,15,7.1z"/>
		<circle class="st0" cx="4.2" cy="4.9" r="0.2"/>
		<circle class="st0" cx="9.3" cy="12.9" r="0.2"/>
		<circle class="st0" cx="11.2" cy="15.1" r="0.2"/>
		<path class="st0" d="M8.3,8.9c0,0,0-0.2-0.2-0.4L7.2,7.6L6.8,7.2c0,0-0.1-0.2-0.3,0L5.4,8.4c0,0-0.4,0.3-0.3,0.8
			c0,0,0.1,0.6,0.7,0.7c0,0,0.2,0,0.5-0.2V10c0,0.3-0.4,0.6-0.4,0.6h0.4h0.3H7h0.4c0,0-0.4-0.3-0.4-0.6V9.7c0.1,0.1,0.3,0.2,0.6,0.2
			C7.6,9.8,8.3,9.7,8.3,8.9z"/>
	</g>
	<path class="st0" d="M0,0v2.2h2.2V0H0z M3.9,0v2.2h2.2V0H3.9z M7.9,0v2.2h2.2V0H7.9z M11.8,0v2.2h2.2V0H11.8z M15.7,0v2.2H18V0
		H15.7z M0,17.4v2.2h2.2v-2.2H0z M3.9,17.4v2.2h2.2v-2.2H3.9z M7.9,17.4v2.2h2.2v-2.2H7.9z M11.8,17.4v2.2h2.2v-2.2H11.8z
		 M15.7,17.4v2.2H18v-2.2H15.7z"/>
</g>
</svg>
