<?xml version="1.0" encoding="utf-8"?>
<!-- Generator: Adobe Illustrator 19.0.0, SVG Export Plug-In . SVG Version: 6.00 Build 0)  -->
<svg version="1.1" id="Layer_1" xmlns="http://www.w3.org/2000/svg" xmlns:xlink="http://www.w3.org/1999/xlink" x="0px" y="0px"
	 viewBox="246 -146 792 460" style="enable-background:new 246 -146 792 460;" xml:space="preserve">
<style type="text/css">
	.st0{fill-rule:evenodd;clip-rule:evenodd;fill:url(#XMLID_2_);}
	.st1{fill-rule:evenodd;clip-rule:evenodd;fill:url(#XMLID_3_);}
	.st2{fill-rule:evenodd;clip-rule:evenodd;fill:url(#XMLID_4_);}
	.st3{fill-rule:evenodd;clip-rule:evenodd;fill:url(#XMLID_5_);}
</style>
<linearGradient id="XMLID_2_" gradientUnits="userSpaceOnUse" x1="498.1167" y1="292.6584" x2="498.1167" y2="231.0682">
	<stop  offset="0" style="stop-color:#696969"/>
	<stop  offset="0.8325" style="stop-color:#000000"/>
</linearGradient>
<path id="XMLID_17_" class="st0" d="M447.8,231.1h113.5l-12.9,61.6H434.9L447.8,231.1z"/>
<linearGradient id="XMLID_3_" gradientUnits="userSpaceOnUse" x1="262.2017" y1="33.1769" x2="596.5307" y2="33.1769">
	<stop  offset="0" style="stop-color:#1C1C1C"/>
	<stop  offset="0.5074" style="stop-color:#1A1A1A"/>
	<stop  offset="0.8128" style="stop-color:#000000"/>
	<stop  offset="0.8719" style="stop-color:#000000"/>
</linearGradient>
<path id="XMLID_11_" class="st1" d="M262.2,107.7L520.3-125l76.3,83.7L338.5,191.3L262.2,107.7z"/>
<g>
	<path d="M735.8,108.1c14.7,0,24.9,12,22.5,26.8l-9.3,58.9c-2.3,14.7-16.3,26.8-31,26.8h-60.7c-14.7,0-24.9-12-22.5-26.8l9.3-58.9
		c2.3-14.7,16.3-26.8,31-26.8H735.8z M671.1,133.5c-0.8,0-1.5,0.6-1.6,1.4l-9.3,58.9c-0.1,0.8,0.4,1.4,1.1,1.4H722
		c0.8,0,1.5-0.6,1.6-1.4l9.3-58.9c0.1-0.8-0.4-1.4-1.1-1.4H671.1z"/>
	<path d="M897.4,71.3l-23.6,149.3h-87.6c-14.7,0-24.9-12-22.5-26.8l9.3-58.9c2.3-14.7,16.3-26.8,31-26.8h62.2l5.8-36.8H897.4z
		 M851,195.2c0.8,0,1.5-0.6,1.6-1.4l9.3-58.9c0.1-0.8-0.4-1.4-1.1-1.4h-60.9c-0.8,0-1.3,0.6-1.4,1.4l-9.3,58.9
		c-0.1,0.8,0.2,1.4,0.9,1.4H851z"/>
	<path d="M1026.7,71.3L1003,220.6h-87.6c-14.7,0-24.9-12-22.5-26.8l9.3-58.9c2.3-14.7,16.3-26.8,31-26.8h62.2l5.8-36.8H1026.7z
		 M980.3,195.2c0.8,0,1.5-0.6,1.6-1.4l9.3-58.9c0.1-0.8-0.4-1.4-1.1-1.4h-60.9c-0.8,0-1.3,0.6-1.4,1.4l-9.3,58.9
		c-0.1,0.8,0.2,1.4,0.9,1.4H980.3z"/>
</g>
<linearGradient id="XMLID_4_" gradientUnits="userSpaceOnUse" x1="262.2047" y1="164.1317" x2="628.6057" y2="164.1317">
	<stop  offset="0" style="stop-color:#696969"/>
	<stop  offset="0.8325" style="stop-color:#000000"/>
</linearGradient>
<path id="XMLID_15_" class="st2" d="M262.2,107.7h366.4l-18.1,112.9H313.8L262.2,107.7z"/>
<linearGradient id="XMLID_5_" gradientUnits="userSpaceOnUse" x1="549.9365" y1="-125" x2="549.9365" y2="98.2644">
	<stop  offset="0" style="stop-color:#696969"/>
	<stop  offset="0.8325" style="stop-color:#000000"/>
</linearGradient>
<path id="XMLID_13_" class="st3" d="M520.3-125l103.2,61.6L589.9,98.3H476.4L520.3-125z"/>
</svg>
