<?xml version="1.0" encoding="utf-8"?>
<!-- Generator: Adobe Illustrator 18.1.1, SVG Export Plug-In . SVG Version: 6.00 Build 0)  -->
<svg version="1.1" id="Layer_1" xmlns="http://www.w3.org/2000/svg" xmlns:xlink="http://www.w3.org/1999/xlink" x="0px" y="0px"
	 viewBox="0 0 536 114" enable-background="new 0 0 536 114" xml:space="preserve">
<g id="XMLID_107_">
	<path id="XMLID_60_" opacity="0.3" fill="#3E5FA3" d="M77.7,22.4V-0.1l0,0c0,0-85.3-5-77.1,26.6c8.8,34.1,43.3,77.8,43.3,77.8l0,0
		l0,0L32.4,71.6L37,51.9l18.4-5.7l-23-6.4V16.8L77.7,22.4z"/>
	<path id="XMLID_59_" fill="#3E5FA3" d="M77.2,22.8l23.1-22.9H89c0,0-84.3-5-76.2,26.6c8.8,34.1,31,77.8,31,77.8l0,0V59.7h27.4
		l19.9-19.9H43.8v-17H77.2z"/>
	<path id="XMLID_146_" fill="#3E5FA3" d="M77.6,105.3L70.5,98V83.5l7.1-7.2H99v-4.7H67.9l11.7-11.8h24.7l7,7.3v31l-7,7.3H77.6z
		 M99,93.5v-5.4H82.7v5.4H99z"/>
	<path id="XMLID_143_" fill="#3E5FA3" d="M72.8,97.1V84.4l5.7-5.8h22.8v-9.3H73.4l7.1-7.2h22.7l5.7,5.9v29.1l-5.7,5.9H78.5
		L72.8,97.1z M80.4,85.8v10h21v-10H80.4z"/>
	<polygon id="XMLID_54_" fill="#3E5FA3" points="117.1,105.3 117.1,59.8 121.3,59.8 129.3,67 129.3,105.3 	"/>
	<polygon id="XMLID_53_" fill="#3E5FA3" points="135.2,105.3 135.2,67.1 142.2,59.8 166.8,59.8 155.5,71.6 147.4,71.6 147.4,105.3 	
		"/>
	<path id="XMLID_139_" fill="#3E5FA3" d="M137.5,103V68l5.7-5.9h18.2l-6.9,7.2h-9.5V103H137.5z"/>
	<polygon id="XMLID_51_" fill="#3E5FA3" points="171.5,105.3 171.5,44.3 216.2,44.3 206.6,56.6 184.1,56.6 184.1,68.1 212.5,68.1 
		202.6,80.4 184.1,80.4 184.1,93 216.2,93 206.6,105.3 	"/>
	<path id="XMLID_136_" fill="#3E5FA3" d="M205.6,103h-31.8V46.6H213l-7.4,7.7h-23.8v16.1h27.4l-7.6,7.7h-19.9v17.3H213L205.6,103z"
		/>
	<polygon id="XMLID_49_" fill="#3E5FA3" points="213.8,105.3 230.8,82.1 214.2,59.8 228.6,59.8 237.8,72.6 247,59.8 261.3,59.8 
		244.8,82.1 261.8,105.2 247.8,105.3 237.8,91.6 227.8,105.4 	"/>
	<path id="XMLID_133_" fill="#3E5FA3" d="M248.2,62.1l8.5,0l-14.8,20l15.4,20.9L249,103l-11.2-15.4L226.6,103l-8.3,0l15.3-20.9
		l-14.8-20l8.5,0l10.4,14.5L248.2,62.1z"/>
	<polygon id="XMLID_47_" fill="#3E5FA3" points="268.2,105.3 262.9,98 262.9,67.1 268.2,59.8 293.2,59.8 300.5,71.6 273.3,71.6 
		273.3,93.5 300.5,93.5 293.2,105.3 	"/>
	<path id="XMLID_130_" fill="#3E5FA3" d="M263.4,97.1V68l5.7-5.9h23.1l7.2,7.2H271v26.5h28.5l-7.2,7.2h-23.1L263.4,97.1z"/>
	<polygon id="XMLID_45_" fill="#3E5FA3" points="332.7,105.3 332.7,71.6 317.3,71.6 317.3,105.3 305.1,105.3 305.1,42 317.3,47.7 
		317.3,59.8 337.9,59.8 344.9,67.1 344.9,105.3 	"/>
	<path id="XMLID_126_" fill="#3E5FA3" d="M359.9,105.3l-7.1-7.3V83.5l7.1-7.2h21.5v-4.7h-31.1l11.7-11.8h24.7l7,7.3v31l-7,7.3H359.9
		z M381.3,93.5v-5.4H365v5.4H381.3z"/>
	<path id="XMLID_123_" fill="#3E5FA3" d="M355.1,97.1V84.4l5.7-5.8h22.8v-9.3h-27.9l7.1-7.2h22.7l5.7,5.9v29.1l-5.7,5.9h-24.7
		L355.1,97.1z M362.7,85.8v10h21v-10H362.7z"/>
	<polygon id="XMLID_40_" fill="#3E5FA3" points="427.7,105.3 427.7,71.6 411.4,71.6 411.4,105.3 399.2,105.3 399.2,67.1 406.3,59.8 
		432.9,59.8 439.9,67.1 439.9,105.3 	"/>
	<path id="XMLID_120_" fill="#3E5FA3" d="M401.5,103V68l5.7-5.9h24.7l5.7,5.9v35H430V69.3h-21V103H401.5z"/>
	<path id="XMLID_117_" fill="#3E5FA3" d="M456.9,113.9l-11.7-11.8h28v-4.6h-20l-7.6-7.2V67l7.6-7.2h32.2v46.9l-7,7.3H456.9z
		 M473.2,85.7V71.6h-15.5v14.1H473.2z"/>
	<path id="XMLID_114_" fill="#3E5FA3" d="M447.9,89.3V68l6.2-5.9H483v43.6l-5.7,5.9h-21.8l-7.1-7.2h27v-9.2h-21.4L447.9,89.3z
		 M455.5,69.3V88h20.1V69.3H455.5z"/>
	<path id="XMLID_111_" fill="#3E5FA3" d="M499,105.3L492,98v-31l7.1-7.3h26.7l7,7.3v21h-28.5v5.4h31.6l-11.7,11.8H499z M520.5,76.3
		v-4.7h-16.3v4.7H520.5z"/>
	<path id="XMLID_108_" fill="#3E5FA3" d="M494.3,97.1V68l5.7-5.9h24.7l5.7,5.9v17.8h-28.5v10h28.4l-7.1,7.2H500L494.3,97.1z
		 M501.8,69.3v9.3h21v-9.3H501.8z"/>
</g>
</svg>
