<?xml version="1.0" encoding="utf-8"?><!DOCTYPE svg PUBLIC "-//W3C//DTD SVG 1.1//EN" "http://www.w3.org/Graphics/SVG/1.1/DTD/svg11.dtd"><svg width="15" height="15" viewBox="0 0 15 15" xmlns="http://www.w3.org/2000/svg" xmlns:xlink="http://www.w3.org/1999/xlink"><svg data-name="Layer 1" width="5" height="10" viewBox="0 0 5 10" id="arrow"><title>Untitled-3</title><path fill="#1e1e1e" d="M0 0v10l5-5-5-5z"/></svg><svg width="9" height="5" viewBox="0 0 9 5" id="arrowselect" y="10"><path fill="#7F7F7F" d="M1.067.15A.704.704 0 0 0 .2.14C.193.142.19.145.185.15c-.245.47-.245 1 0 1.468l3.874 3.22c.234.204.623.21.867.015.006-.005.01-.01.017-.014l3.874-3.222c.244-.468.244-1 0-1.468a.71.71 0 0 0-.87-.01c-.006.003-.01.007-.014.01L4.5 2.835 1.068.15z"/></svg><svg data-name="Layer 1" width="10" height="10" viewBox="0 0 10 10" id="burger" x="5"><title>burger</title><path fill="#1e1e1e" d="M0 0h10v2H0zM0 4h10v2H0zM0 8h10v2H0z"/></svg></svg>