<?xml version="1.0" encoding="utf-8"?>
<!-- Generator: Adobe Illustrator 21.0.0, SVG Export Plug-In . SVG Version: 6.00 Build 0)  -->
<svg version="1.1" id="Layer_1" xmlns="http://www.w3.org/2000/svg" xmlns:xlink="http://www.w3.org/1999/xlink" x="0px" y="0px"
	 viewBox="0 0 65.3 35.2" style="enable-background:new 0 0 65.3 35.2;" xml:space="preserve">
<style type="text/css">
	.st0{fill:#FFFFFF;}
</style>
<g>
	<g>
		<path class="st0" d="M29.7,16h-1c-0.4,2-1.2,3.9-2.2,5.6l2.2,0.5l-1.5,1.7l0.2,2.2l-2.1-0.9L23.2,26l0.1-0.7
			c-0.8,0.6-1.6,1.2-2.5,1.7v2.7h8.9V16z"/>
		<path class="st0" d="M62.9,3.2c-1.3,0-2.4,1.1-2.4,2.4c0,0.8,0.4,1.4,0.9,1.9v13.9h-1.6v-3.7h-1.5v-7.2H48v0
			C43.6,3.8,34,2.9,28.1,7.7C28.7,9.4,29,11.2,29,13c0,0.1,0,0.3,0,0.4h26.4v18.8H18.2v-4.1c-0.9,0.3-1.9,0.6-2.9,0.7v6.4h43.1V28
			h1.5v-3.7h4.5V7.4c0.5-0.4,0.9-1.1,0.9-1.9C65.3,4.3,64.2,3.2,62.9,3.2z"/>
		<path class="st0" d="M32.3,16v13.6h8.9V16H32.3z M38.9,26l-2.1-0.9L34.7,26l0.2-2.2l-1.5-1.7l2.2-0.5l1.2-2l1.2,2l2.2,0.5
			l-1.5,1.7L38.9,26z"/>
		<path class="st0" d="M43.9,16v13.6h8.9V16H43.9z M50.4,26l-2.1-0.9L46.2,26l0.2-2.2l-1.5-1.7l2.2-0.5l1.2-2l1.2,2l2.2,0.5
			l-1.5,1.7L50.4,26z"/>
	</g>
	<path class="st0" d="M13,0C5.8,0,0,5.8,0,13s5.8,13,13,13s13-5.8,13-13S20.2,0,13,0z M13.7,18.9h-2.5V9.1l-3,0.9V7.9L13.4,6h0.3
		V18.9z"/>
</g>
</svg>
